# xmcd CD database file
#
# Track frame offsets:
#	150
#	15995
#	38072
#	54765
#	71385
#	85737
#	105857
#	119725
#	130765
#	146852
#	161055
#	176535
#	192195
#	209157
#	221985
#
# Disc length: 3219 seconds
#
# Revision: 0
# Processed by: cddbd v1.4PL0 Copyright (c) Steve Scherf et al.
# Submitted via: CDex 1.40Release
#
DISCID=d40c910f
DTITLE=Toby Keith - Boomtown
DYEAR=1900
DGENRE=Country
TTITLE0=Should've been a cowboy
TTITLE1=Who's that man
TTITLE2=Big ol' truck
TTITLE3=Victoria's secret
TTITLE4=No honor among thieves
TTITLE5=Upstairs downtown
TTITLE6=He ain't worth missing
TTITLE7=You ain't much fun
TTITLE8=In other words
TTITLE9=Woman behind the man
TTITLE10=Wish I didn't know you
TTITLE11=Life was a play (the world on stage)
TTITLE12=Boomtown
TTITLE13=A little less talk and a lot more action
TTITLE14=A little less talk and a lot more action (dance mix)
EXTD=ID3G: 2
EXTT0=
EXTT1=
EXTT2=
EXTT3=
EXTT4=
EXTT5=
EXTT6=
EXTT7=
EXTT8=
EXTT9=
EXTT10=
EXTT11=
EXTT12=
EXTT13=
EXTT14=
PLAYORDER=
